<?xml version="1.0" encoding="utf-8"?>
<!-- Svg Vector Icons : http://www.onlinewebfonts.com/icon -->
<!DOCTYPE svg PUBLIC "-//W3C//DTD SVG 1.1//EN" "http://www.w3.org/Graphics/SVG/1.1/DTD/svg11.dtd">
<svg version="1.1" xmlns="http://www.w3.org/2000/svg" xmlns:xlink="http://www.w3.org/1999/xlink" x="0px" y="0px" viewBox="0 0 1000 1000" enable-background="new 0 0 1000 1000" xml:space="preserve">
<metadata> Svg Vector Icons : http://www.onlinewebfonts.com/icon </metadata>
<g><g><path d="M861.1,291.1V825c0,26.9-23.3,39.8-51.6,59.8c-22.7,16.1-51.6-3.9-51.6-30.3c0,0,0-510.9,0-521.7c0-10.9-3.8-21.2-16.2-27.6C729.3,299,342.6,95.6,342.6,95.6c-6.2-2.3-33.5-19.5-69.8-0.8c-34.5,17.7-53.3,37-58.1,46.1l421.9,231.2c11.2,5.9,18.1,15,18.1,26.6v557.1c0,11.9-7.3,24.6-19,30.2c-5.4,2.7-11.3,4-17.2,4c-7,0-14-1.7-19.9-5.4c-11.1-6.8-401-245.8-426.7-261.3c-12.4-7.4-26.9-22.6-27.2-33.9L139,158.8c0-10.2-1.2-28.2,14.9-53.2C189.8,49.7,315.3-13.9,378.8,19L842.9,254C854.1,259.8,861.1,271.3,861.1,291.1L861.1,291.1z"/></g></g>
</svg>