<?xml version="1.0" encoding="utf-8"?>
<!-- Svg Vector Icons : http://www.onlinewebfonts.com/icon -->
<!DOCTYPE svg PUBLIC "-//W3C//DTD SVG 1.1//EN" "http://www.w3.org/Graphics/SVG/1.1/DTD/svg11.dtd">
<svg version="1.1" xmlns="http://www.w3.org/2000/svg" xmlns:xlink="http://www.w3.org/1999/xlink" x="0px" y="0px" viewBox="0 0 1000 1000" enable-background="new 0 0 1000 1000" xml:space="preserve">
<metadata> Svg Vector Icons : http://www.onlinewebfonts.com/icon </metadata>
<g><g transform="translate(0.000000,512.000000) scale(0.100000,-0.100000)"><path d="M1195.5,4989.5c-120.8-42.2-220.4-116.9-295.2-220.4c-118.8-164.8-115-26.8-109.3-2813.8l5.7-2537.7l53.7-109.3c61.3-124.6,170.6-231.9,299-291.3c86.3-40.2,107.3-40.2,1359-46l1268.9-5.8v-304.8v-306.7H3532c-164.8,0-253-7.7-268.3-23c-30.7-30.7-30.7-383.3,0-414c30.7-30.7,3409.9-34.5,3467.4-3.8c32.6,17.3,36.4,42.2,36.4,201.3c0,241.5,3.8,239.6-299,239.6h-237.7v306.7v304.8l1270.8,5.8l1268.9,5.7l95.8,47.9c126.5,61.3,231.9,172.5,295.2,304.8l49.8,107.3v2558.8v2558.8l-49.8,107.3c-63.3,132.3-168.7,243.4-295.2,304.8l-95.8,47.9l-3737.6,3.8C1483,5022.1,1289.4,5022.1,1195.5,4989.5z M8684.1,2379V270.6H5004H1323.9V2379v2108.4H5004h3680.1V2379z M5086.4-139.6c86.3-36.4,130.3-92,141.8-180.2c19.2-143.8-82.4-253-237.7-253c-134.2,0-230,115-210.8,253c11.5,86.3,55.6,143.8,138,180.2C4990.6-107,5011.7-107,5086.4-139.6z"/><path d="M1621-2506.8c-21.1-9.6-59.4-40.2-86.3-69l-47.9-51.7v-1013.9v-1014l63.2-61.3l61.3-63.3h2280.9h2280.9l61.3,63.3l63.2,61.3v1015.9v1015.9l-63.2,61.3l-61.3,63.2l-2257.9,3.8C2675.2-2493.3,1642.1-2499.1,1621-2506.8z M2178.8-2840.3c116.9-101.6,34.5-262.6-134.2-262.6c-116.9,0-184,55.6-184,153.3c0,57.5,11.5,82.4,49.8,113.1C1983.2-2778.9,2109.7-2782.8,2178.8-2840.3z M2656-2844.1c30.7-28.8,47.9-69,47.9-105.4c0-95.8-72.8-153.3-191.7-153.3c-118.8,0-191.7,57.5-191.7,153.3c0,95.8,72.8,153.3,191.7,153.3C2590.8-2796.2,2619.6-2805.8,2656-2844.1z M3116-2844.1c30.7-28.8,47.9-69,47.9-105.4c0-95.8-72.8-153.3-191.7-153.3c-118.8,0-191.7,57.5-191.7,153.3c0,95.8,72.8,153.3,191.7,153.3C3050.9-2796.2,3079.6-2805.8,3116-2844.1z M3576-2844.1c30.7-28.8,47.9-69,47.9-105.4c0-93.9-72.8-153.3-187.8-153.3c-128.4,0-195.5,51.8-195.5,153.3c0,101.6,67.1,153.3,195.5,153.3C3510.9-2796.2,3539.6-2805.8,3576-2844.1z M4018.8-2840.3c116.9-101.6,34.5-262.6-134.2-262.6c-116.9,0-184,55.6-184,153.3c0,57.5,11.5,82.4,49.8,113.1C3823.3-2778.9,3949.8-2782.8,4018.8-2840.3z M4494.1-2836.4c38.3-30.7,49.8-55.6,49.8-113.1c0-101.6-67.1-153.3-195.5-153.3c-115,0-187.8,59.4-187.8,153.3c0,36.4,17.3,76.7,47.9,105.4C4269.9-2780.9,4419.4-2777,4494.1-2836.4z M4954.2-2836.4c38.3-30.7,49.8-55.6,49.8-113.1c0-99.7-67.1-153.3-191.7-153.3c-124.6,0-191.7,53.7-191.7,153.3c0,99.7,67.1,153.3,191.7,153.3C4875.6-2796.2,4917.7-2807.7,4954.2-2836.4z M5414.2-2836.4c38.3-30.7,49.8-55.6,49.8-113.1c0-99.7-67.1-153.3-191.7-153.3c-124.6,0-191.7,53.7-191.7,153.3c0,99.7,67.1,153.3,191.7,153.3C5335.6-2796.2,5377.8-2807.7,5414.2-2836.4z M5881.9-2834.5c53.7-51.8,70.9-118.8,40.2-176.3c-38.3-70.9-78.6-90.1-185.9-92c-122.7,0-195.5,57.5-195.5,153.3c0,95.8,72.8,153.3,197.4,153.3C5814.8-2796.2,5851.2-2805.8,5881.9-2834.5z M2178.8-3300.3c116.9-101.6,34.5-262.6-134.2-262.6c-116.9,0-184,55.6-184,153.3c0,57.5,11.5,82.4,49.8,113.1C1983.2-3238.9,2109.7-3242.8,2178.8-3300.3z M2656-3304.1c30.7-28.8,47.9-69,47.9-105.4c0-95.8-72.8-153.3-191.7-153.3c-118.8,0-191.7,57.5-191.7,153.3c0,95.8,72.8,153.3,191.7,153.3C2590.8-3256.2,2619.6-3265.8,2656-3304.1z M3116-3304.1c30.7-28.8,47.9-69,47.9-105.4c0-95.8-72.8-153.3-191.7-153.3c-118.8,0-191.7,57.5-191.7,153.3c0,95.8,72.8,153.3,191.7,153.3C3050.9-3256.2,3079.6-3265.8,3116-3304.1z M3576-3304.1c30.7-28.8,47.9-69,47.9-105.4c0-93.9-72.8-153.3-187.8-153.3c-128.4,0-195.5,51.8-195.5,153.3s67.1,153.3,195.5,153.3C3510.9-3256.2,3539.6-3265.8,3576-3304.1z M4018.8-3300.3c116.9-101.6,34.5-262.6-134.2-262.6c-116.9,0-184,55.6-184,153.3c0,57.5,11.5,82.4,49.8,113.1C3823.3-3238.9,3949.8-3242.8,4018.8-3300.3z M4494.1-3296.4c38.3-30.7,49.8-55.6,49.8-113.1c0-101.6-67.1-153.3-195.5-153.3c-115,0-187.8,59.4-187.8,153.3c0,36.4,17.3,76.7,47.9,105.4C4269.9-3240.9,4419.4-3237,4494.1-3296.4z M4954.2-3296.4c38.3-30.7,49.8-55.6,49.8-113.1c0-99.7-67.1-153.3-191.7-153.3c-124.6,0-191.7,53.7-191.7,153.3c0,99.7,67.1,153.3,191.7,153.3C4875.6-3256.2,4917.7-3267.7,4954.2-3296.4z M5414.2-3296.4c38.3-30.7,49.8-55.6,49.8-113.1c0-99.7-67.1-153.3-191.7-153.3c-124.6,0-191.7,53.7-191.7,153.3c0,99.7,67.1,153.3,191.7,153.3C5335.6-3256.2,5377.8-3267.7,5414.2-3296.4z M5881.9-3294.5c53.7-51.8,70.9-118.8,40.2-176.3c-38.3-70.9-78.6-90.1-185.9-92c-122.7,0-195.5,57.5-195.5,153.3c0,95.8,72.8,153.3,197.4,153.3C5814.8-3256.2,5851.2-3265.8,5881.9-3294.5z M2656-3764.1c30.7-28.8,47.9-69,47.9-105.4s-17.3-76.7-47.9-105.4c-46-47.9-51.8-47.9-373.8-47.9s-327.8,0-373.8,47.9c-30.7,28.7-47.9,69-47.9,105.4s17.2,76.7,47.9,105.4c46,47.9,51.8,47.9,373.8,47.9S2610-3716.2,2656-3764.1z M3116-3764.1c30.7-28.8,47.9-69,47.9-105.4c0-95.8-72.8-153.3-191.7-153.3c-118.8,0-191.7,57.5-191.7,153.3c0,95.8,72.8,153.3,191.7,153.3C3050.9-3716.2,3079.6-3725.8,3116-3764.1z M3576-3764.1c30.7-28.8,47.9-69,47.9-105.4c0-93.9-72.8-153.3-187.8-153.3c-128.4,0-195.5,51.8-195.5,153.3c0,101.6,67.1,153.3,195.5,153.3C3510.9-3716.2,3539.6-3725.8,3576-3764.1z M4018.8-3760.3c116.9-101.6,34.5-262.6-134.2-262.6c-116.9,0-184,55.6-184,153.3c0,57.5,11.5,82.4,49.8,113.1C3823.3-3699,3949.8-3702.8,4018.8-3760.3z M4494.1-3756.5c38.3-30.7,49.8-55.6,49.8-113.1c0-101.6-67.1-153.3-195.5-153.3c-115,0-187.8,59.4-187.8,153.3c0,36.4,17.3,76.7,47.9,105.4C4269.9-3700.9,4419.4-3697.1,4494.1-3756.5z M4954.2-3756.5c38.3-30.7,49.8-55.6,49.8-113.1c0-99.7-67.1-153.3-191.7-153.3c-124.6,0-191.7,53.7-191.7,153.3c0,99.7,67.1,153.3,191.7,153.3C4875.6-3716.2,4917.7-3727.7,4954.2-3756.5z M5876.1-3764.1c30.7-28.8,47.9-69,47.9-105.4s-17.3-76.7-47.9-105.4c-46-47.9-51.8-47.9-373.8-47.9c-322,0-327.8,0-373.8,47.9c-30.7,28.7-47.9,69-47.9,105.4s17.2,76.7,47.9,105.4c46,47.9,51.7,47.9,373.8,47.9C5824.4-3716.2,5830.1-3716.2,5876.1-3764.1z M2196-4224.1c30.7-28.8,47.9-69,47.9-105.4c0-95.8-72.8-153.3-191.7-153.3s-191.7,57.5-191.7,153.3c0,95.8,72.8,153.3,191.7,153.3C2130.8-4176.2,2159.6-4185.8,2196-4224.1z M2656-4224.1c30.7-28.8,47.9-69,47.9-105.4c0-95.8-72.8-153.3-191.7-153.3c-118.8,0-191.7,57.5-191.7,153.3c0,95.8,72.8,153.3,191.7,153.3C2590.8-4176.2,2619.6-4185.8,2656-4224.1z M3116-4224.1c30.7-28.8,47.9-69,47.9-105.4c0-95.8-72.8-153.3-191.7-153.3c-118.8,0-191.7,57.5-191.7,153.3c0,95.8,72.8,153.3,191.7,153.3C3050.9-4176.2,3079.6-4185.8,3116-4224.1z M4496.1-4224.1c30.7-28.8,47.9-69,47.9-105.4s-17.2-76.7-47.9-105.4l-46-47.9h-553.9c-532.9,0-555.8,1.9-605.7,40.2c-38.3,30.7-49.8,55.6-49.8,113.1c0,57.5,11.5,82.4,49.8,113.1c49.8,38.3,72.8,40.2,605.7,40.2h553.9L4496.1-4224.1z M4954.2-4216.5c38.3-30.7,49.8-55.6,49.8-113.1c0-99.7-67.1-153.3-191.7-153.3c-124.6,0-191.7,53.7-191.7,153.3s67.1,153.3,191.7,153.3C4875.6-4176.2,4917.7-4187.7,4954.2-4216.5z M5414.2-4216.5c38.3-30.7,49.8-55.6,49.8-113.1c0-99.7-67.1-153.3-191.7-153.3c-124.6,0-191.7,53.7-191.7,153.3s67.1,153.3,191.7,153.3C5335.6-4176.2,5377.8-4187.7,5414.2-4216.5z M5876.1-4224.1c30.7-28.8,47.9-69,47.9-105.4c0-95.8-72.8-153.3-191.7-153.3s-191.7,57.5-191.7,153.3c0,95.8,72.8,153.3,191.7,153.3C5810.9-4176.2,5839.7-4185.8,5876.1-4224.1z"/><path d="M7346.2-2677.3c-126.5-46-226.2-124.6-306.7-241.5c-113.1-168.7-120.7-233.8-115-849.1c5.7-630.6,9.6-647.9,178.3-828c136.1-143.8,241.5-184,498.3-184c187.8,0,222.3,5.8,318.2,49.8c138,65.2,256.9,184,322,322l49.8,107.3v584.6c0,561.6-1.9,588.4-42.2,676.6c-59.4,128.4-216.6,287.5-337.3,341.2C7771.8-2637.1,7490-2627.5,7346.2-2677.3z M7723.8-2999.4c32.6-40.3,40.2-78.6,40.2-180.2c0-166.8-42.2-230-153.3-230c-111.2,0-153.3,63.3-153.3,230s42.2,230,153.3,230C7668.3-2949.5,7693.2-2961,7723.8-2999.4z"/></g></g>
</svg>