<?xml version="1.0" encoding="utf-8"?>
<!-- Svg Vector Icons : http://www.onlinewebfonts.com/icon -->
<!DOCTYPE svg PUBLIC "-//W3C//DTD SVG 1.1//EN" "http://www.w3.org/Graphics/SVG/1.1/DTD/svg11.dtd">
<svg version="1.1" xmlns="http://www.w3.org/2000/svg" xmlns:xlink="http://www.w3.org/1999/xlink" x="0px" y="0px" viewBox="0 0 1000 1000" enable-background="new 0 0 1000 1000" xml:space="preserve">
<metadata> Svg Vector Icons : http://www.onlinewebfonts.com/icon </metadata>
<g><g transform="translate(0.000000,511.000000) scale(0.100000,-0.100000)"><path d="M1559.7,3021.8c-155.9-36.8-331.3-142.9-454.7-275c-114.8-123.4-138.6-173.2-545.6-1123.7C282.3,973.5,126.4,581.6,111.2,495C48.4,146.4,256.3-271.5,565.9-427.4c54.1-28.1,188.4-77.9,294.5-110.4c108.3-32.5,701.5-214.4,1320.8-404.9c619.2-190.5,1173.5-352.9,1234.2-363.7c153.7-23.8,368.1,10.8,524,86.6c205.7,101.8,344.3,266.3,469.8,558.6c58.5,134.2,106.1,242.5,108.3,242.5S5067.3-652.5,5732-936.2c829.3-355.1,1210.4-528.3,1203.8-547.8c-43.3-138.6-13-281.5,80.1-370.2c73.6-69.3,2169.5-967.8,2260.5-967.8c82.3,0,190.5,47.6,249,110.4c71.4,78,374.6,803.3,374.6,896.4c0,90.9-39,175.4-112.6,242.5c-67.1,62.8-2169.5,959.2-2249.6,959.2c-36.8,0-95.3-13-134.2-30.3c-75.8-30.3-188.4-149.4-188.4-197c0-17.3-10.8-36.8-21.7-43.3c-30.3-19.5-2425,1006.8-2425,1037.1c0,13,45.5,129.9,103.9,262c99.6,233.8,101.8,242.5,101.8,467.7c0,218.7-2.2,233.8-82.3,391.9c-93.1,190.5-220.8,318.3-428.7,428.7c-75.8,39-638.7,344.3-1249.3,675.5c-701.5,381.1-1156.2,614.9-1234.2,634.4C1845.5,3047.8,1685.3,3052.1,1559.7,3021.8z M3032,1917.5c532.6-227.3,1004.7-433,1048-454.7c99.6-49.8,147.2-136.4,147.2-264.1c0-151.6-125.6-275-279.3-275c-71.5,0-2067.8,848.8-2132.7,905c-56.3,52-99.6,145.1-99.6,214.4c0,142.9,145.1,288,288,288C2038.2,2331.1,2501.6,2144.9,3032,1917.5z M2731.1,988.7C3569,629.3,3759.5,540.5,3796.4,488.5C3932.8,295.8,3802.8,36,3571.2,36c-99.6,0-2067.7,833.6-2150,911.5c-65,60.6-101.8,175.4-84.4,257.7c30.3,138.6,175.4,246.8,305.3,229.5C1681,1430.4,2170.3,1229,2731.1,988.7z M2332.7,51.2c922.4-396.3,1022-443.9,1065.3-511c73.6-110.4,67.1-240.3-17.3-337.8c-69.3-80.1-201.4-129.9-270.6-106.1c-84.4,30.3-1929.2,816.3-2007.1,857.4C983.8,12.2,931.8,107.4,942.6,239.5c8.7,90.9,21.7,119.1,88.8,179.7C1172.1,549.1,1183,544.8,2332.7,51.2z"/></g></g>
</svg>