<?xml version="1.0" encoding="utf-8"?>
<!-- Svg Vector Icons : http://www.onlinewebfonts.com/icon -->
<!DOCTYPE svg PUBLIC "-//W3C//DTD SVG 1.1//EN" "http://www.w3.org/Graphics/SVG/1.1/DTD/svg11.dtd">
<svg version="1.1" xmlns="http://www.w3.org/2000/svg" xmlns:xlink="http://www.w3.org/1999/xlink" x="0px" y="0px" viewBox="0 0 1000 1000" enable-background="new 0 0 1000 1000" xml:space="preserve">
<metadata> Svg Vector Icons : http://www.onlinewebfonts.com/icon </metadata>
<g><g transform="translate(0.000000,511.000000) scale(0.100000,-0.100000)"><path d="M6257.4,4990c-120.3-46.6-203.7-108-390.2-296.9c-152.2-154.6-162-162-277.3-162c-63.8,0-152.2-17.2-196.3-39.3c-44.2-22.1-1251.6-1212.3-2684.8-2643.1L100-757.6v-2017.3v-2019.7h2007.5h2005l2630.8,2633.3C9558.2,653.6,9425.7,511.2,9425.7,749.3c0,73.6,29.5,112.9,196.3,287.1c216,220.9,274.9,328.8,277.3,512.9c2.5,262.6,56.4,201.2-1575.6,1835.7c-903.1,905.6-1551,1538.7-1607.4,1568.2C6593.6,5017,6375.2,5034.2,6257.4,4990z M8012.1,3134.7c1347.3-1347.3,1494.6-1501.9,1494.6-1573.1c0-63.8-29.5-108-162-240.5l-164.4-164.4L7609.6,2727.3L6039,4297.9l169.3,166.9c127.6,125.2,184.1,164.4,238,164.4C6507.7,4629.2,6733.5,4410.8,8012.1,3134.7z M6407.1,3365.4l773-773L4996,408.2C3795.9-794.4,2806.9-1776,2799.5-1776s-27,68.7-41.7,149.7c-14.7,83.4-71.2,240.5-125.1,350.9c-265.1,547.3-728.9,905.6-1271.2,979.2l-206.1,27l2201.4,2203.8C4569,3147,5577.6,4138.4,5597.2,4138.4C5616.9,4138.4,5982.5,3789.9,6407.1,3365.4z M9033,714.9c0-14.7-998.8-1023.4-2221-2245.5C4676.9-3665.7,4591-3749.1,4591-3665.7c-2.5,272.4-157.1,677.4-355.8,930.1c-247.9,314.1-701.9,593.9-1065.1,652.8l-108,17.2l2194,2194l2194,2194l790.2-790.2C8677.2,1095.3,9033,729.7,9033,714.9z M1437.5-708.5c341.1-90.8,645.4-350.9,819.7-701.9c176.7-358.3,189-672.4,34.4-876.1c-81-105.5-83.4-206.2-7.4-287.1s154.6-76.1,304.3,17.2c319,206.2,858.9,66.3,1244.2-323.9c412.3-417.2,478.5-1008.6,164.4-1452.8l-46.6-68.7h-758.3h-755.9l-110.4,228.2C1974.9-3457.1,1403.1-2885.3,708.6-2554l-216,103.1v765.7v765.7l68.7,46.6C819.1-691.3,1138.1-632.4,1437.5-708.5z M951.6-3147.9c373-250.3,687.2-593.9,925.2-1020.9c61.4-110.4,112.9-208.6,112.9-216c0-9.8-336.2-17.2-748.5-17.2H492.7v760.8v760.8l117.8-58.9C676.7-2973.6,828.9-3066.9,951.6-3147.9z"/></g></g>
</svg>