<?xml version="1.0" encoding="utf-8"?>
<!-- Svg Vector Icons : http://www.onlinewebfonts.com/icon -->
<!DOCTYPE svg PUBLIC "-//W3C//DTD SVG 1.1//EN" "http://www.w3.org/Graphics/SVG/1.1/DTD/svg11.dtd">
<svg version="1.1" xmlns="http://www.w3.org/2000/svg" xmlns:xlink="http://www.w3.org/1999/xlink" x="0px" y="0px" viewBox="0 0 1000 1000" enable-background="new 0 0 1000 1000" xml:space="preserve">
<metadata> Svg Vector Icons : http://www.onlinewebfonts.com/icon </metadata>
<g><g><path d="M990,500c0-66.7-37.1-128.2-99.5-177.5c-0.1,0-0.2,0-0.2-0.1C872.5,147.3,704.7,10,500,10c-204.7,0-372.5,137.3-390.2,312.4c0,0.1-0.1,0.1-0.2,0.1C47.1,371.8,10,433.3,10,500c0,152.5,193.4,277.8,441,292.5c0,16.6,0,33.5,0,50.5c0,49-89.2,93.6-89.2,93.6c-4.9,2.4-7.3,8.5-5.3,13.6c0,0,14.9,39.8,45.6,39.8s55.1-24.5,116.3-24.5c61.3,0,119.5,21.2,119.5,21.2c5,1.9,12.3,0.2,16.1-3.6l35.1-35.1c3.8-3.8,2.8-8.5-2.3-10.4c0,0-88.8-33.3-88.8-94.6c0-15.3,0-34.6,0-54.9C821.7,760.9,990,642.2,990,500L990,500z M108,500c0-49.9,37.6-95.3,99.1-129.9c-0.5-5.7-1.1-11.4-1.1-17.1c0-135.3,131.7-245,294-245c162.3,0,294,109.7,294,245c0,5.7-0.6,11.4-1,17.1c61.4,34.6,99,80,99,129.9c0,91.3-125,167.8-294,189.6c0-19.6,0-32.7,0-32.7c0-5.4,3.2-12.8,7.1-16.5l89.8-84.6c3.9-3.7,7.2-11.1,7.2-16.5v-41.7c0-5.4-3.8-7.6-8.4-4.9L606.5,544c-4.7,2.7-8.5,0.6-8.5-4.9V362.8c0-5.4-4.2-8.4-9.3-6.7l-128.4,42.8c-5.1,1.7-9.3,7.5-9.3,12.9v127.4c0,5.4-3.9,7.7-8.7,5.2l-99.1-52.1c-4.8-2.5-11.8-1.5-15.6,2.4L311,511.4c-3.8,3.8-3.6,9.8,0.4,13.4l132.3,115.7c4.1,3.6,7.4,10.9,7.4,16.3c0,0,0,14.6,0,37.5C257.7,682.2,108,600,108,500L108,500z"/></g></g>
</svg>