<?xml version="1.0" encoding="utf-8"?>
<!-- Svg Vector Icons : http://www.onlinewebfonts.com/icon -->
<!DOCTYPE svg PUBLIC "-//W3C//DTD SVG 1.1//EN" "http://www.w3.org/Graphics/SVG/1.1/DTD/svg11.dtd">
<svg version="1.1" xmlns="http://www.w3.org/2000/svg" xmlns:xlink="http://www.w3.org/1999/xlink" x="0px" y="0px" viewBox="0 0 1000 1000" enable-background="new 0 0 1000 1000" xml:space="preserve">
<metadata> Svg Vector Icons : http://www.onlinewebfonts.com/icon </metadata>
<g><g transform="translate(0.000000,511.000000) scale(0.100000,-0.100000)"><path d="M5122.1,4982.9c-351.5-95.7-613.1-382.7-669.7-738.1c-41-263.6,48.8-546.7,238.2-747.9c177.7-189.4,392.5-281.2,650.2-281.2c622.9,0,1054.4,619,841.6,1210.6C6030,4844.2,5547.7,5096.1,5122.1,4982.9z"/><path d="M4735.4,2881.8c-132.8-15.6-281.2-70.3-439.3-158.2c-173.8-95.7-1575.8-1122.8-1620.7-1187.2c-21.5-31.2-48.8-82-58.6-111.3c-43-126.9-296.8-1814-285.1-1896c41-304.6,380.8-474.5,654.1-326.1c105.4,58.6,187.5,160.1,216.7,265.6c9.8,37.1,66.4,378.8,126.9,759.6c58.6,380.8,113.2,716.6,119.1,744c5.9,37.1,85.9,105.4,312.4,269.5c166,121.1,306.6,216.7,310.5,212.8c3.9-3.9-52.7-392.5-128.9-865c-74.2-472.5-134.7-894.3-134.7-937.3c2-109.4,33.2-236.3,85.9-341.7c72.3-142.5,2778.6-3887.7,2870.4-3967.7c99.6-91.8,216.7-132.8,371-132.8c394.4,0,654.1,425.7,476.4,781.1c-25.4,48.8-503.8,724.4-1066.1,1501.6c-562.4,777.2-1027.1,1423.5-1031,1435.2c-5.9,13.7,87.9,634.6,207,1380.5c132.8,839.6,214.8,1415.7,214.8,1503.5c0,300.7-115.2,560.4-341.7,777.1C5348.6,2821.3,5051.8,2922.8,4735.4,2881.8z"/><path d="M6239,1024.9c-76.2-445.2-181.6-1177.4-171.8-1193c7.8-13.7,126.9-179.6,265.5-371C6608-918,6678.3-980.4,6852.1-998c189.4-17.6,376.9,89.8,453,259.7c43,93.7,46.9,259.7,9.8,351.5c-25.4,60.5-1038.8,1474.2-1056.4,1474.2C6254.6,1087.4,6244.8,1058.1,6239,1024.9z"/><path d="M3954.4-3124.4c-322.2-445.2-605.3-851.3-628.7-900.1c-89.8-185.5-46.9-447.2,97.6-595.6c111.3-113.2,210.9-156.2,376.9-166c167.9-9.8,298.7,39.1,402.2,148.4c72.2,74.2,984.1,1329.7,1003.7,1378.6c9.8,23.4-609.2,909.9-654.1,937.2C4546-2318,4276.6-2679.2,3954.4-3124.4z"/></g></g>
</svg>